<svg width="198" height="135" viewBox="0 0 198 135" fill="none" xmlns="http://www.w3.org/2000/svg">
<rect width="198" height="135" fill="#F6F8FD"/>
<path fill-rule="evenodd" clip-rule="evenodd" d="M98.9996 90.4C111.371 90.4 121.4 80.3712 121.4 68C121.4 55.6288 111.371 45.6 98.9996 45.6C86.6284 45.6 76.5996 55.6288 76.5996 68C76.5996 80.3712 86.6284 90.4 98.9996 90.4ZM101.8 59.6C101.8 58.0536 100.546 56.8 98.9996 56.8C97.4532 56.8 96.1996 58.0536 96.1996 59.6V65.2H90.5996C89.0532 65.2 87.7996 66.4536 87.7996 68C87.7996 69.5464 89.0532 70.8 90.5996 70.8H96.1996V76.4C96.1996 77.9464 97.4532 79.2 98.9996 79.2C100.546 79.2 101.8 77.9464 101.8 76.4V70.8H107.4C108.946 70.8 110.2 69.5464 110.2 68C110.2 66.4536 108.946 65.2 107.4 65.2H101.8V59.6Z" fill="#0F4C75"/>
</svg>
