<svg width="74" height="74" viewBox="0 0 74 74" fill="none" xmlns="http://www.w3.org/2000/svg">
<g filter="url(#filter0_i_298_18061)">
<rect width="73.2" height="73.2" rx="36.6" fill="#F8F9FC"/>
<rect x="0.975" y="0.975" width="71.25" height="71.25" rx="35.625" stroke="url(#paint0_linear_298_18061)" stroke-opacity="0.12" stroke-width="1.95"/>
<rect x="20" y="39" width="3" height="15" rx="1.5" fill="#17A896"/>
<rect x="27" y="28" width="15" height="26" rx="3.9" fill="#17A896"/>
<rect x="48" y="35" width="3" height="19" rx="1.5" fill="#17A896"/>
<path d="M26.0996 54.0996V22.5996C26.0996 21.6714 26.4684 20.7811 27.1247 20.1247C27.7811 19.4684 28.6714 19.0996 29.5996 19.0996H43.5996C44.5279 19.0996 45.4181 19.4684 46.0745 20.1247C46.7309 20.7811 47.0996 21.6714 47.0996 22.5996V54.0996H26.0996Z" stroke="#021624" stroke-width="3.5" stroke-linecap="round" stroke-linejoin="round"/>
<path d="M26.0996 36.5996H22.5996C21.6714 36.5996 20.7811 36.9684 20.1247 37.6247C19.4684 38.2811 19.0996 39.1714 19.0996 40.0996V50.5996C19.0996 51.5279 19.4684 52.4181 20.1247 53.0745C20.7811 53.7309 21.6714 54.0996 22.5996 54.0996H26.0996" stroke="#021624" stroke-width="3.5" stroke-linecap="round" stroke-linejoin="round"/>
<path d="M47.0996 31.3496H50.5996C51.5279 31.3496 52.4181 31.7184 53.0745 32.3747C53.7309 33.0311 54.0996 33.9214 54.0996 34.8496V50.5996C54.0996 51.5279 53.7309 52.4181 53.0745 53.0745C52.4181 53.7309 51.5279 54.0996 50.5996 54.0996H47.0996" stroke="#021624" stroke-width="3.5" stroke-linecap="round" stroke-linejoin="round"/>
<path d="M33.0996 26.0996H40.0996" stroke="#021624" stroke-width="3.5" stroke-linecap="round" stroke-linejoin="round"/>
<path d="M33.0996 33.0996H40.0996" stroke="#021624" stroke-width="3.5" stroke-linecap="round" stroke-linejoin="round"/>
<path d="M33.0996 40.0996H40.0996" stroke="#021624" stroke-width="3.5" stroke-linecap="round" stroke-linejoin="round"/>
<path d="M33.0996 47.0996H40.0996" stroke="#021624" stroke-width="3.5" stroke-linecap="round" stroke-linejoin="round"/>
</g>
<defs>
<filter id="filter0_i_298_18061" x="0" y="-3.9" width="73.1992" height="77.1002" filterUnits="userSpaceOnUse" color-interpolation-filters="sRGB">
<feFlood flood-opacity="0" result="BackgroundImageFix"/>
<feBlend mode="normal" in="SourceGraphic" in2="BackgroundImageFix" result="shape"/>
<feColorMatrix in="SourceAlpha" type="matrix" values="0 0 0 0 0 0 0 0 0 0 0 0 0 0 0 0 0 0 127 0" result="hardAlpha"/>
<feOffset dy="-3.9"/>
<feGaussianBlur stdDeviation="3.9"/>
<feComposite in2="hardAlpha" operator="arithmetic" k2="-1" k3="1"/>
<feColorMatrix type="matrix" values="0 0 0 0 0 0 0 0 0 0 0 0 0 0 0 0 0 0 0.12 0"/>
<feBlend mode="normal" in2="shape" result="effect1_innerShadow_298_18061"/>
</filter>
<linearGradient id="paint0_linear_298_18061" x1="36.6" y1="0" x2="36.6" y2="73.2" gradientUnits="userSpaceOnUse">
<stop stop-color="#102737"/>
<stop offset="1" stop-color="#102737" stop-opacity="0"/>
</linearGradient>
</defs>
</svg>
