<svg width="40" height="40" viewBox="0 0 40 40" fill="none" xmlns="http://www.w3.org/2000/svg">
<g filter="url(#filter0_i_285_10190)">
<rect width="40" height="40" rx="20" fill="#F8F9FC"/>
<rect x="0.5" y="0.5" width="39" height="39" rx="19.5" stroke="url(#paint0_linear_285_10190)" stroke-opacity="0.12"/>
<rect x="12" y="18" width="11" height="11" rx="5.5" fill="#17A896"/>
<path d="M19.5248 10.2949C19.5687 10.2064 19.6364 10.1318 19.7203 10.0797C19.8042 10.0276 19.9011 10 19.9998 10C20.0986 10 20.1955 10.0276 20.2794 10.0797C20.3633 10.1318 20.431 10.2064 20.4748 10.2949L22.7848 14.9739C22.937 15.2819 23.1617 15.5483 23.4395 15.7503C23.7173 15.9524 24.04 16.084 24.3798 16.1339L29.5458 16.8899C29.6437 16.9041 29.7357 16.9454 29.8113 17.0091C29.887 17.0728 29.9433 17.1564 29.9739 17.2505C30.0045 17.3446 30.0081 17.4453 29.9844 17.5413C29.9607 17.6374 29.9107 17.7248 29.8398 17.7939L26.1038 21.4319C25.8575 21.672 25.6731 21.9684 25.5667 22.2955C25.4602 22.6227 25.4349 22.9708 25.4928 23.3099L26.3748 28.4499C26.3921 28.5477 26.3816 28.6485 26.3443 28.7406C26.3071 28.8327 26.2448 28.9125 26.1644 28.9709C26.084 29.0293 25.9888 29.0639 25.8897 29.0708C25.7906 29.0777 25.6915 29.0566 25.6038 29.0099L20.9858 26.5819C20.6816 26.4221 20.343 26.3386 19.9993 26.3386C19.6557 26.3386 19.3171 26.4221 19.0128 26.5819L14.3958 29.0099C14.3082 29.0563 14.2092 29.0772 14.1103 29.0701C14.0114 29.0631 13.9164 29.0285 13.8361 28.9701C13.7559 28.9118 13.6937 28.8321 13.6565 28.7401C13.6193 28.6482 13.6087 28.5476 13.6258 28.4499L14.5068 23.3109C14.565 22.9716 14.5398 22.6233 14.4334 22.2959C14.3269 21.9686 14.1425 21.672 13.8958 21.4319L10.1598 17.7949C10.0884 17.7259 10.0378 17.6383 10.0138 17.542C9.98978 17.4456 9.99328 17.3445 10.0239 17.2501C10.0546 17.1557 10.1111 17.0717 10.1871 17.0079C10.2631 16.944 10.3556 16.9028 10.4538 16.8889L15.6188 16.1339C15.9591 16.0844 16.2822 15.953 16.5604 15.7509C16.8386 15.5488 17.0636 15.2822 17.2158 14.9739L19.5248 10.2949Z" stroke="black" stroke-width="2" stroke-linecap="round" stroke-linejoin="round"/>
</g>
<defs>
<filter id="filter0_i_285_10190" x="0" y="-2" width="40" height="42" filterUnits="userSpaceOnUse" color-interpolation-filters="sRGB">
<feFlood flood-opacity="0" result="BackgroundImageFix"/>
<feBlend mode="normal" in="SourceGraphic" in2="BackgroundImageFix" result="shape"/>
<feColorMatrix in="SourceAlpha" type="matrix" values="0 0 0 0 0 0 0 0 0 0 0 0 0 0 0 0 0 0 127 0" result="hardAlpha"/>
<feOffset dy="-2"/>
<feGaussianBlur stdDeviation="2"/>
<feComposite in2="hardAlpha" operator="arithmetic" k2="-1" k3="1"/>
<feColorMatrix type="matrix" values="0 0 0 0 0 0 0 0 0 0 0 0 0 0 0 0 0 0 0.12 0"/>
<feBlend mode="normal" in2="shape" result="effect1_innerShadow_285_10190"/>
</filter>
<linearGradient id="paint0_linear_285_10190" x1="20" y1="0" x2="20" y2="40" gradientUnits="userSpaceOnUse">
<stop stop-color="#102737"/>
<stop offset="1" stop-color="#102737" stop-opacity="0"/>
</linearGradient>
</defs>
</svg>
