<svg width="40" height="40" viewBox="0 0 40 40" fill="none" xmlns="http://www.w3.org/2000/svg">
<g filter="url(#filter0_i_325_11160)">
<rect width="40" height="40" rx="20" fill="#F8F9FC"/>
<rect x="0.5" y="0.5" width="39" height="39" rx="19.5" stroke="url(#paint0_linear_325_11160)" stroke-opacity="0.12"/>
<circle cx="19" cy="20" r="3" fill="#17A896"/>
<circle cx="17.5" cy="22.5" r="6.5" fill="#17A896"/>
<path d="M15.9 28C17.8086 28.9791 20.0041 29.2443 22.0909 28.7478C24.1777 28.2514 26.0186 27.0259 27.2818 25.2922C28.545 23.5586 29.1474 21.4308 28.9806 19.2922C28.8137 17.1537 27.8886 15.145 26.3718 13.6282C24.855 12.1115 22.8464 11.1863 20.7078 11.0195C18.5693 10.8526 16.4415 11.4551 14.7078 12.7183C12.9742 13.9815 11.7487 15.8224 11.2522 17.9092C10.7558 19.996 11.0209 22.1915 12 24.1L10 30L15.9 28Z" stroke="#021624" stroke-width="2" stroke-linecap="round" stroke-linejoin="round"/>
<path d="M23.8006 17.2C23.3333 16.7419 22.705 16.4854 22.0506 16.4854C21.3962 16.4854 20.7679 16.7419 20.3006 17.2L20.0006 17.6L19.6506 17.3C19.4214 17.0519 19.1427 16.8545 18.8326 16.7205C18.5224 16.5866 18.1877 16.5191 17.8499 16.5223C17.5121 16.5256 17.1787 16.5995 16.8712 16.7394C16.5637 16.8793 16.2888 17.082 16.0644 17.3345C15.84 17.587 15.6709 17.8836 15.568 18.2054C15.4652 18.5272 15.4308 18.867 15.4672 19.2028C15.5036 19.5387 15.6099 19.8632 15.7793 20.1555C15.9486 20.4478 16.1773 20.7014 16.4506 20.9L20.0506 24.4L23.6506 20.9C24.8506 19.7 24.7506 18.2 23.8506 17.2" stroke="#021624" stroke-width="2" stroke-linecap="round" stroke-linejoin="round"/>
</g>
<defs>
<filter id="filter0_i_325_11160" x="0" y="-2" width="40" height="42" filterUnits="userSpaceOnUse" color-interpolation-filters="sRGB">
<feFlood flood-opacity="0" result="BackgroundImageFix"/>
<feBlend mode="normal" in="SourceGraphic" in2="BackgroundImageFix" result="shape"/>
<feColorMatrix in="SourceAlpha" type="matrix" values="0 0 0 0 0 0 0 0 0 0 0 0 0 0 0 0 0 0 127 0" result="hardAlpha"/>
<feOffset dy="-2"/>
<feGaussianBlur stdDeviation="2"/>
<feComposite in2="hardAlpha" operator="arithmetic" k2="-1" k3="1"/>
<feColorMatrix type="matrix" values="0 0 0 0 0 0 0 0 0 0 0 0 0 0 0 0 0 0 0.12 0"/>
<feBlend mode="normal" in2="shape" result="effect1_innerShadow_325_11160"/>
</filter>
<linearGradient id="paint0_linear_325_11160" x1="20" y1="0" x2="20" y2="40" gradientUnits="userSpaceOnUse">
<stop stop-color="#102737"/>
<stop offset="1" stop-color="#102737" stop-opacity="0"/>
</linearGradient>
</defs>
</svg>
