<svg width="40" height="40" viewBox="0 0 40 40" fill="none" xmlns="http://www.w3.org/2000/svg">
<g filter="url(#filter0_i_298_18168)">
<rect width="40" height="40" rx="20" fill="#F8F9FC"/>
<rect x="0.5" y="0.5" width="39" height="39" rx="19.5" stroke="url(#paint0_linear_298_18168)" stroke-opacity="0.12"/>
<circle cx="16.5" cy="23.5" r="2.5" fill="#17A896"/>
<circle cx="13.5" cy="13.5" r="2.5" fill="#17A896"/>
<path d="M22.5 17.5L23.5 18.5" stroke="#021624" stroke-width="2" stroke-linecap="round" stroke-linejoin="round"/>
<path d="M23.5 16.5L19.5 20.5" stroke="#021624" stroke-width="2" stroke-linecap="round" stroke-linejoin="round"/>
<path d="M11 20C11 21.78 11.5278 23.5201 12.5168 25.0001C13.5057 26.4802 14.9113 27.6337 16.5558 28.3149C18.2004 28.9961 20.01 29.1743 21.7558 28.8271C23.5016 28.4798 25.1053 27.6226 26.364 26.364C27.6226 25.1053 28.4798 23.5016 28.8271 21.7558C29.1743 20.01 28.9961 18.2004 28.3149 16.5558C27.6337 14.9113 26.4802 13.5057 25.0001 12.5168C23.5201 11.5278 21.78 11 20 11C17.4837 11.0084 15.0684 11.9903 13.26 13.74L11 16" stroke="#021624" stroke-width="2" stroke-linecap="round" stroke-linejoin="round"/>
<path d="M11 11V16H16" stroke="#021624" stroke-width="2" stroke-linecap="round" stroke-linejoin="round"/>
<path d="M18 24C19.1046 24 20 23.1046 20 22C20 20.8954 19.1046 20 18 20C16.8954 20 16 20.8954 16 22C16 23.1046 16.8954 24 18 24Z" stroke="#021624" stroke-width="2" stroke-linecap="round" stroke-linejoin="round"/>
</g>
<defs>
<filter id="filter0_i_298_18168" x="0" y="-2" width="40" height="42" filterUnits="userSpaceOnUse" color-interpolation-filters="sRGB">
<feFlood flood-opacity="0" result="BackgroundImageFix"/>
<feBlend mode="normal" in="SourceGraphic" in2="BackgroundImageFix" result="shape"/>
<feColorMatrix in="SourceAlpha" type="matrix" values="0 0 0 0 0 0 0 0 0 0 0 0 0 0 0 0 0 0 127 0" result="hardAlpha"/>
<feOffset dy="-2"/>
<feGaussianBlur stdDeviation="2"/>
<feComposite in2="hardAlpha" operator="arithmetic" k2="-1" k3="1"/>
<feColorMatrix type="matrix" values="0 0 0 0 0 0 0 0 0 0 0 0 0 0 0 0 0 0 0.12 0"/>
<feBlend mode="normal" in2="shape" result="effect1_innerShadow_298_18168"/>
</filter>
<linearGradient id="paint0_linear_298_18168" x1="20" y1="0" x2="20" y2="40" gradientUnits="userSpaceOnUse">
<stop stop-color="#102737"/>
<stop offset="1" stop-color="#102737" stop-opacity="0"/>
</linearGradient>
</defs>
</svg>
