<svg width="40" height="40" viewBox="0 0 40 40" fill="none" xmlns="http://www.w3.org/2000/svg">
<g filter="url(#filter0_i_285_10117)">
<rect width="40" height="40" rx="20" fill="#F8F9FC"/>
<rect x="0.5" y="0.5" width="39" height="39" rx="19.5" stroke="url(#paint0_linear_285_10117)" stroke-opacity="0.12"/>
<rect x="12" y="27" width="15" height="4" rx="2" fill="#17A896"/>
<rect x="12" y="15" width="12" height="10" rx="2" fill="#17A896"/>
<path d="M23 21C23 20.2044 22.6839 19.4413 22.1213 18.8787C21.5587 18.3161 20.7956 18 20 18C19.2044 18 18.4413 18.3161 17.8787 18.8787C17.3161 19.4413 17 20.2044 17 21" stroke="#021624" stroke-width="2" stroke-linecap="round" stroke-linejoin="round"/>
<path d="M12 27.5V12.5C12 11.837 12.2634 11.2011 12.7322 10.7322C13.2011 10.2634 13.837 10 14.5 10H27C27.2652 10 27.5196 10.1054 27.7071 10.2929C27.8946 10.4804 28 10.7348 28 11V29C28 29.2652 27.8946 29.5196 27.7071 29.7071C27.5196 29.8946 27.2652 30 27 30H14.5C13.837 30 13.2011 29.7366 12.7322 29.2678C12.2634 28.7989 12 28.163 12 27.5ZM12 27.5C12 26.837 12.2634 26.2011 12.7322 25.7322C13.2011 25.2634 13.837 25 14.5 25H28" stroke="#021624" stroke-width="2" stroke-linecap="round" stroke-linejoin="round"/>
<path d="M20 18C21.1046 18 22 17.1046 22 16C22 14.8954 21.1046 14 20 14C18.8954 14 18 14.8954 18 16C18 17.1046 18.8954 18 20 18Z" stroke="#021624" stroke-width="2" stroke-linecap="round" stroke-linejoin="round"/>
</g>
<defs>
<filter id="filter0_i_285_10117" x="0" y="-2" width="40" height="42" filterUnits="userSpaceOnUse" color-interpolation-filters="sRGB">
<feFlood flood-opacity="0" result="BackgroundImageFix"/>
<feBlend mode="normal" in="SourceGraphic" in2="BackgroundImageFix" result="shape"/>
<feColorMatrix in="SourceAlpha" type="matrix" values="0 0 0 0 0 0 0 0 0 0 0 0 0 0 0 0 0 0 127 0" result="hardAlpha"/>
<feOffset dy="-2"/>
<feGaussianBlur stdDeviation="2"/>
<feComposite in2="hardAlpha" operator="arithmetic" k2="-1" k3="1"/>
<feColorMatrix type="matrix" values="0 0 0 0 0 0 0 0 0 0 0 0 0 0 0 0 0 0 0.12 0"/>
<feBlend mode="normal" in2="shape" result="effect1_innerShadow_285_10117"/>
</filter>
<linearGradient id="paint0_linear_285_10117" x1="20" y1="0" x2="20" y2="40" gradientUnits="userSpaceOnUse">
<stop stop-color="#102737"/>
<stop offset="1" stop-color="#102737" stop-opacity="0"/>
</linearGradient>
</defs>
</svg>
